<svg fill="none" xmlns="http://www.w3.org/2000/svg" viewBox="0 0 290 90"><path d="M106.6 26c.3 1.6.3 4 0 7a93.3 93.3 0 01-1.7 11.7c-.2.3-.7.5-1.4.8a9 9 0 01-1.7.4h-.6l-.8-2.5a116.4 116.4 0 00-2.8-7.4v.2a39.7 39.7 0 00-1.1 9.2l-.5.3c-.8.5-1.7.7-2.5.9H93c-.5-.5-1.6-2.9-3.2-7.3a57.3 57.3 0 01-2.8-9.5l.3-.3a4 4 0 011.8-.7h1a73.4 73.4 0 003.8 12l.1-.3a55 55 0 011.4-9 7.5 7.5 0 013.5-.7l.9 2a582.6 582.6 0 012.6 7.5c.1.3.2.2.3-.1a38.4 38.4 0 00.3-10.7c0-.2-.2-.4-.5-.5l-1-.2-.1-.3a3.6 3.6 0 01.1-1.3 18.5 18.5 0 015-1.3zm13.9 10.5c.2 1.7 0 3.1-1 4.5a5 5 0 01-3.7 2.3c-1.7.3-3 0-4.2-1a5.8 5.8 0 01-2-3.9 6.4 6.4 0 015.7-7.3h1.4l.2.4v1c.3-.1.6 0 1 .2l1.2.8a5.7 5.7 0 011.4 3zm-4-1.2c-.5-.3-.9-.3-1.3-.3h-.2v-1c-.8 0-1.4.5-2 1.2-.4.7-.6 1.6-.5 2.8.2 1.3.8 2.2 1.7 2.6.4.1.8.2 1.4.1.6 0 1-.4 1.5-1s.6-1.5.5-2.5c-.2-1-.6-1.7-1.1-2zM123 38l-.9-5.9c-.1-1-.1-1.5 0-1.6 0-.2.4-.4.8-.6.5-.2.9-.4 1.3-.4h.6a14.5 14.5 0 00.3 2.5h.1l.2-.3.4-.6.7-.7c.7-.6 1.4-1 2.3-1 .1.1.3.5.3 1 .2.9.1 1.6 0 2l-.1.3h-.4c-1.2.2-2 .8-2.7 2-.2.4-.3.7-.2.9l.3 2.3.4 3.1c-.5.6-1.4 1-2.8 1.1h-.2L123 38zm13.9-9.7l-.6-3.8-.2-1.7 1-.7c.4-.3.8-.4 1.3-.5h.6a189.8 189.8 0 002 14.8c.3 1 .7 1.6 1.2 2 0 .2-.3.5-1 1a4 4 0 01-1.7.8l-.2-.2c-.4-.4-.7-1-.9-1.7h-.1c-.6 1.1-1.6 1.8-3 2-1.2.2-2.1-.2-3-1a5 5 0 01-1.4-2.9c-.2-2 .1-3.7 1.1-5.2s2.7-2.5 4.9-2.9zm.4 2.7h-.3c-1.2.2-2 .6-2.5 1.4a4 4 0 00-.6 2.8c.1.7.3 1.2.7 1.6.3.3.8.4 1.4.4.6-.1 1-.5 1.4-1 .3-.6.4-1 .4-1.4l-.5-3.8zm13.5 3.6c.2 1-.2 1.8-1 2.7a8 8 0 01-2.5 2c-1 .4-1.8.7-2.6.8 0 0-.2 0-.4-.3-.5-.5-.8-1.1-1-1.9V38c1.4-.2 2.4-.6 3-1.2.7-.5 1-1 .9-1.6 0-.3-.3-.6-.8-.9l-1.6-.8-1.5-.8c-.5-.4-.8-.9-.9-1.4-.1-1 .4-2 1.6-3.2 1.2-1 2.5-1.6 4-1.9.1 0 .4.2.7.7.4.4.6.9.7 1.4a6 6 0 00-1.5.5c-1.3.6-2 1.2-1.8 1.9 0 .4.8 1 2.2 1.5.6.2 1.1.6 1.6 1 .5.5.8 1 1 1.6zm10.3-4.3a50.8 50.8 0 00-4.3.7c-.5 3.1-.7 5.3-.7 6.7h-.6l-1.3.2c-1 0-1.4 0-1.5-.2 0-.7.3-2.8 1-6.2a4 4 0 01-1-1l-.6-1.5 2.2-.4c.8-4.3 1.3-6.6 1.5-6.8l.8-.4 1-.3v-.3a16.9 16.9 0 00-.4-1.4l.4-.3a6 6 0 012.5-1l1.2 3.8 2.7 7c1.3 3 2.4 5.2 3.3 6.3l.3.3-.5.5a6.6 6.6 0 01-2.6 1.3 58.8 58.8 0 01-3.3-7zm-1-2.6a166 166 0 01-1.8-4.3 26.6 26.6 0 00-1 4.7l2.9-.4zm10.4-5.6l.1 1.2c4.6-.6 7.1.8 7.6 4.4a5.8 5.8 0 01-1.3 4.7 9.3 9.3 0 01-4.7 2.7v.4c.4 2.5.7 4.2 1 5-.2.3-.6.6-1.1.7-.5.3-1 .4-1.3.4h-.5c-.2-.5-.4-1.6-.6-3.3l-1.6-12-.5-3a3 3 0 011-.7c.4-.3.9-.4 1.2-.5h.7zm1.1 8.8l.2 1.3c1-.1 2-.6 2.6-1.3.7-.7 1-1.6.9-2.8-.3-1.8-1.7-2.6-4.3-2.2v.4l.1.8.5 3.8zm10.8-10.5l.2 1.3c4.6-.7 7 .8 7.6 4.3a5.9 5.9 0 01-1.4 4.8 9.3 9.3 0 01-4.7 2.6v.4l1 5c-.2.3-.5.6-1 .8l-1.4.4h-.5l-.6-3.4-1.5-12-.5-3a3 3 0 011-.7c.4-.2.8-.4 1.2-.4h.6zm1.1 8.8l.3 1.3c1-.1 1.9-.6 2.6-1.3.7-.7 1-1.6.8-2.7-.3-1.9-1.7-2.6-4.3-2.3v.4l.2.8.4 3.8z" fill="#EEE"/><path d="M73.6 77C115 63 201.5 38.5 217.1 53.3" stroke="#8B8C8C" stroke-width="3"/></svg>