<svg fill="none" xmlns="http://www.w3.org/2000/svg" viewBox="0 0 146 66"><path d="M33.4 13c.2 1.7.2 4 0 7a94 94 0 01-1.8 11.8c-.2.2-.6.5-1.4.7a9 9 0 01-1.6.5H28l-.9-2.6a116.2 116.2 0 00-2.8-7.4v.2a39.7 39.7 0 00-1 9.2l-.5.3c-.9.5-1.7.8-2.6 1l-.4-.1c-.5-.4-1.6-2.8-3.2-7.3a57.3 57.3 0 01-2.7-9.5l.2-.2a4 4 0 011.8-.7l1-.1a73.4 73.4 0 003.8 12l.1-.2a55 55 0 011.4-9 7.5 7.5 0 013.6-.8l.8 2.1a590.2 590.2 0 012.6 7.4c.1.3.3.3.3-.1a38.3 38.3 0 00.4-10.7c0-.2-.3-.3-.6-.4-.3-.2-.7-.3-1-.2v-.4a3.6 3.6 0 010-1.3 18.5 18.5 0 015-1.2zm13.8 10.6c.2 1.6 0 3-.9 4.4a5 5 0 01-3.8 2.4c-1.6.2-3-.1-4.1-1a5.8 5.8 0 01-2-4 6.4 6.4 0 015.7-7.3h1.3s.2.2.2.5v.8c.3 0 .6.1 1 .4l1.2.7.9 1.3c.2.5.4 1 .5 1.8zm-4-1.3c-.4-.2-.8-.3-1.2-.2h-.2l-.1-.4V21c-.8.1-1.4.5-1.9 1.2-.5.8-.7 1.7-.5 2.8.2 1.4.7 2.2 1.6 2.6.4.2.9.2 1.4.1.6 0 1.1-.4 1.5-1 .5-.6.6-1.4.5-2.5-.2-1-.5-1.7-1.1-2zm6.5 2.8l-.8-5.8-.2-1.6c.2-.3.5-.5 1-.7l1.2-.4h.6a14.8 14.8 0 00.4 2.5l.2-.3.4-.5.7-.8c.7-.6 1.5-1 2.3-1 .2.2.3.5.4 1l-.1 2.1v.2h-.4c-1.3.2-2.2.8-2.7 2l-.3 1 .3 2.2.4 3.2c-.4.5-1.3.9-2.8 1h-.2c0-.7 0-2-.4-4zm13.9-9.6l-.6-3.8L63 10c.1-.3.4-.5.9-.8l1.3-.5h.7a191.1 191.1 0 002 14.9c.2.9.6 1.5 1.1 2l-1 .9a4 4 0 01-1.7.8l-.2-.2c-.4-.4-.7-1-.9-1.6v-.1c-.7 1.2-1.7 1.8-3 2-1.2.2-2.2-.1-3-1a5 5 0 01-1.5-2.9c-.2-1.9.1-3.6 1.2-5.2 1-1.5 2.6-2.5 4.8-2.8zm.4 2.7h-.3c-1.2.1-2 .6-2.5 1.4a4 4 0 00-.6 2.8c.1.6.3 1.1.7 1.5.4.3.8.5 1.4.4.7 0 1.1-.4 1.4-1 .3-.6.4-1 .4-1.4a58 58 0 01-.5-3.7zm13.6 3.5c0 1-.2 1.9-1 2.7a8 8 0 01-2.6 2c-1 .4-1.8.7-2.6.8L71 27c-.5-.5-.8-1.2-.9-2V25c1.3-.2 2.3-.6 3-1.1.6-.6.9-1.1.8-1.6 0-.4-.3-.7-.8-1l-1.5-.7c-.6-.2-1.1-.5-1.6-.9s-.8-.9-.8-1.4c-.2-1 .3-2 1.5-3.1 1.2-1 2.5-1.7 4-2 .2 0 .4.3.8.7.3.4.5.9.6 1.4a6 6 0 00-1.5.5c-1.3.6-1.9 1.3-1.8 1.9 0 .5.8 1 2.3 1.5l1.5 1c.6.5.9 1 1 1.6zm10.3-4.3a51 51 0 00-4.4.7c-.5 3.1-.7 5.4-.6 6.7l-.7.1-1.3.1-1.4-.1c-.1-.7.2-2.8 1-6.3a4 4 0 01-1-1c-.4-.6-.6-1-.6-1.5l2-.4c1-4.3 1.4-6.5 1.6-6.8l.9-.3 1-.4-.1-.3a18.3 18.3 0 00-.4-1.3l.4-.4c.8-.5 1.7-.8 2.5-1L88.1 9l2.6 7c1.3 3 2.4 5.2 3.4 6.4l.2.3-.4.5a6.6 6.6 0 01-2.7 1.2l-1.5-2.7a59 59 0 01-1.8-4.3zm-1-2.5a169 169 0 01-1.9-4.3 26.1 26.1 0 00-1 4.6c1.9-.3 2.9-.4 2.9-.3zm10.3-5.6l.2 1.2c4.5-.7 7 .8 7.6 4.3a5.9 5.9 0 01-1.4 4.8 9.3 9.3 0 01-4.7 2.6v.4c.4 2.6.7 4.3 1 5.1-.2.3-.6.5-1 .7l-1.4.4H97a35 35 0 01-.6-3.4l-1.6-12-.4-3a3 3 0 01.9-.7l1.2-.4h.7zm1.1 8.8l.2 1.2c1-.1 2-.5 2.7-1.2.7-.8 1-1.7.8-2.8-.3-1.9-1.7-2.6-4.3-2.2v.3l.2.9.4 3.8zm10.9-10.5l.1 1.2c4.6-.6 7.1.8 7.6 4.3a5.8 5.8 0 01-1.4 4.8 9.3 9.3 0 01-4.6 2.6v.4c.4 2.6.7 4.3 1 5.1l-1.1.7c-.6.2-1 .4-1.4.4h-.5l-.6-3.4-1.5-12-.5-2.9a3 3 0 011-.7c.4-.3.8-.5 1.2-.5h.7zm1 8.8l.3 1.3c1-.2 2-.6 2.6-1.3.7-.7 1-1.7.8-2.8-.2-1.8-1.7-2.6-4.2-2.2v1.2l.6 3.8z" fill="#EEE"/><path d="M.6 64C42 50 128.5 25.5 144.1 40.3" stroke="#8B8C8C" stroke-width="3"/></svg>